<svg xmlns="http://www.w3.org/2000/svg" width="900" height="600" viewBox="0 0 900 600"><rect width="900" height="600" fill="white"/><text x="450" y="40" text-anchor="middle" font-family="Arial" font-size="26" font-weight="700">Selected Feature Correlations</text><g transform="translate(210 80)" font-family="Arial" font-size="14"><g fill="#374151" text-anchor="end"><text x="-12" y="36">Sales</text><text x="-12" y="96">Promo</text><text x="-12" y="156">SchoolHoliday</text><text x="-12" y="216">CompetitionDistance</text><text x="-12" y="276">Month</text><text x="-12" y="336">DayOfWeek</text></g><g fill="#374151" text-anchor="middle"><text x="30" y="390" transform="rotate(-35 30 390)">Sales</text><text x="90" y="390" transform="rotate(-35 90 390)">Promo</text><text x="150" y="390" transform="rotate(-35 150 390)">SchoolHoliday</text><text x="210" y="390" transform="rotate(-35 210 390)">CompetitionDistance</text><text x="270" y="390" transform="rotate(-35 270 390)">Month</text><text x="330" y="390" transform="rotate(-35 330 390)">DayOfWeek</text></g><g stroke="white" stroke-width="2"><rect x="0" y="0" width="60" height="60" fill="#b91c1c"/><rect x="60" y="0" width="60" height="60" fill="#ef8a62"/><rect x="120" y="0" width="60" height="60" fill="#fddbc7"/><rect x="180" y="0" width="60" height="60" fill="#d1e5f0"/><rect x="240" y="0" width="60" height="60" fill="#f7f7f7"/><rect x="300" y="0" width="60" height="60" fill="#92c5de"/><rect x="0" y="60" width="60" height="60" fill="#ef8a62"/><rect x="60" y="60" width="60" height="60" fill="#b91c1c"/><rect x="120" y="60" width="60" height="60" fill="#f7f7f7"/><rect x="180" y="60" width="60" height="60" fill="#f7f7f7"/><rect x="240" y="60" width="60" height="60" fill="#fddbc7"/><rect x="300" y="60" width="60" height="60" fill="#f7f7f7"/><rect x="0" y="120" width="60" height="60" fill="#fddbc7"/><rect x="60" y="120" width="60" height="60" fill="#f7f7f7"/><rect x="120" y="120" width="60" height="60" fill="#b91c1c"/><rect x="180" y="120" width="60" height="60" fill="#f7f7f7"/><rect x="240" y="120" width="60" height="60" fill="#ef8a62"/><rect x="300" y="120" width="60" height="60" fill="#f7f7f7"/><rect x="0" y="180" width="60" height="60" fill="#d1e5f0"/><rect x="60" y="180" width="60" height="60" fill="#f7f7f7"/><rect x="120" y="180" width="60" height="60" fill="#f7f7f7"/><rect x="180" y="180" width="60" height="60" fill="#b91c1c"/><rect x="240" y="180" width="60" height="60" fill="#f7f7f7"/><rect x="300" y="180" width="60" height="60" fill="#f7f7f7"/><rect x="0" y="240" width="60" height="60" fill="#f7f7f7"/><rect x="60" y="240" width="60" height="60" fill="#fddbc7"/><rect x="120" y="240" width="60" height="60" fill="#ef8a62"/><rect x="180" y="240" width="60" height="60" fill="#f7f7f7"/><rect x="240" y="240" width="60" height="60" fill="#b91c1c"/><rect x="300" y="240" width="60" height="60" fill="#f7f7f7"/><rect x="0" y="300" width="60" height="60" fill="#92c5de"/><rect x="60" y="300" width="60" height="60" fill="#f7f7f7"/><rect x="120" y="300" width="60" height="60" fill="#f7f7f7"/><rect x="180" y="300" width="60" height="60" fill="#f7f7f7"/><rect x="240" y="300" width="60" height="60" fill="#f7f7f7"/><rect x="300" y="300" width="60" height="60" fill="#b91c1c"/></g></g><g transform="translate(660 125)" font-family="Arial" font-size="14"><rect x="0" y="0" width="30" height="240" fill="url(#g)"/><text x="42" y="15">+1</text><text x="42" y="125">0</text><text x="42" y="238">−1</text></g><defs><linearGradient id="g" x1="0" y1="0" x2="0" y2="1"><stop offset="0" stop-color="#b91c1c"/><stop offset="0.5" stop-color="#f7f7f7"/><stop offset="1" stop-color="#2166ac"/></linearGradient></defs></svg>