<svg xmlns="http://www.w3.org/2000/svg" width="900" height="500" viewBox="0 0 900 500"><rect width="900" height="500" fill="white"/><text x="450" y="42" text-anchor="middle" font-family="Arial" font-size="26" font-weight="700">Test Error Metrics</text><line x1="100" y1="420" x2="850" y2="420" stroke="#1f2937" stroke-width="2"/><line x1="100" y1="80" x2="100" y2="420" stroke="#1f2937" stroke-width="2"/><g font-family="Arial" font-size="14" fill="#374151"><text x="88" y="425" text-anchor="end">0</text><text x="88" y="340" text-anchor="end">200</text><text x="88" y="255" text-anchor="end">400</text><text x="88" y="170" text-anchor="end">600</text><text x="88" y="85" text-anchor="end">800</text></g><rect x="190" y="106" width="95" height="314" fill="#2563eb"/><rect x="295" y="198" width="95" height="222" fill="#60a5fa"/><rect x="510" y="85" width="95" height="335" fill="#7c3aed"/><rect x="615" y="191" width="95" height="229" fill="#a78bfa"/><g font-family="Arial" text-anchor="middle"><text x="290" y="458" font-size="18">Ridge</text><text x="610" y="458" font-size="18">XGBoost</text><text x="237" y="96" font-size="15">RMSE 738</text><text x="342" y="188" font-size="15">MAE 522</text><text x="557" y="75" font-size="15">RMSE 789</text><text x="662" y="181" font-size="15">MAE 538</text></g><g font-family="Arial" font-size="15"><rect x="700" y="75" width="18" height="18" fill="#2563eb"/><text x="726" y="90">RMSE</text><rect x="700" y="105" width="18" height="18" fill="#60a5fa"/><text x="726" y="120">MAE</text></g></svg>