<svg xmlns="http://www.w3.org/2000/svg" width="900" height="500" viewBox="0 0 900 500"><rect width="900" height="500" fill="white"/><text x="450" y="42" text-anchor="middle" font-family="Arial" font-size="26" font-weight="700">Monthly Sales Trend</text><line x1="90" y1="420" x2="850" y2="420" stroke="#1f2937" stroke-width="2"/><line x1="90" y1="80" x2="90" y2="420" stroke="#1f2937" stroke-width="2"/><polyline points="110,310 150,285 190,300 230,270 270,260 310,245 350,235 390,255 430,225 470,215 510,190 550,120 590,300 630,275 670,250 710,230 750,210 790,190 830,170" fill="none" stroke="#2563eb" stroke-width="5" stroke-linejoin="round"/><g fill="#2563eb"><circle cx="110" cy="310" r="5"/><circle cx="230" cy="270" r="5"/><circle cx="350" cy="235" r="5"/><circle cx="470" cy="215" r="5"/><circle cx="550" cy="120" r="5"/><circle cx="630" cy="275" r="5"/><circle cx="750" cy="210" r="5"/><circle cx="830" cy="170" r="5"/></g><g font-family="Arial" font-size="15" fill="#374151"><text x="110" y="448">Jan 2014</text><text x="410" y="448">Sep 2014</text><text x="690" y="448">Apr 2015</text><text x="25" y="250" text-anchor="middle" transform="rotate(-90 25 250)">Total sales</text></g><text x="555" y="105" font-family="Arial" font-size="15" fill="#b45309">December peak</text></svg>