<svg xmlns="http://www.w3.org/2000/svg" width="900" height="500" viewBox="0 0 900 500"><rect width="900" height="500" fill="white"/><text x="450" y="42" text-anchor="middle" font-family="Arial" font-size="26" font-weight="700">Distribution of Open-Store Daily Sales</text><line x1="90" y1="420" x2="850" y2="420" stroke="#1f2937" stroke-width="2"/><line x1="90" y1="80" x2="90" y2="420" stroke="#1f2937" stroke-width="2"/><g fill="#2563eb"><rect x="110" y="395" width="50" height="25"/><rect x="165" y="355" width="50" height="65"/><rect x="220" y="265" width="50" height="155"/><rect x="275" y="145" width="50" height="275"/><rect x="330" y="95" width="50" height="325"/><rect x="385" y="125" width="50" height="295"/><rect x="440" y="195" width="50" height="225"/><rect x="495" y="270" width="50" height="150"/><rect x="550" y="325" width="50" height="95"/><rect x="605" y="360" width="50" height="60"/><rect x="660" y="385" width="50" height="35"/><rect x="715" y="402" width="50" height="18"/></g><g font-family="Arial" font-size="16" fill="#374151"><text x="450" y="475" text-anchor="middle">Daily sales</text><text x="25" y="250" text-anchor="middle" transform="rotate(-90 25 250)">Store-days</text><text x="110" y="445">Low</text><text x="740" y="445">High</text></g></svg>